<svg width="120" height="120" xmlns="http://www.w3.org/2000/svg">

  <ellipse cx="60" cy="60" rx="58" ry="45" fill="#2a2a2a"/>
  <ellipse cx="60" cy="60" rx="55" ry="42" fill="none" stroke="#1a1a1a" stroke-width="4" opacity="0.5"/>
  <ellipse cx="60" cy="60" rx="50" ry="37" fill="none" stroke="#3a3a3a" stroke-width="2" opacity="0.3"/>
  <g stroke="#1a1a1a" stroke-width="3" stroke-linecap="round" opacity="0.4">
    <line x1="60" y1="13" x2="60" y2="22"/>
    <line x1="95" y1="25" x2="87" y2="32"/>
    <line x1="112" y1="60" x2="100" y2="60"/>
    <line x1="95" y1="95" x2="87" y2="88"/>
    <line x1="60" y1="107" x2="60" y2="98"/>
    <line x1="25" y1="95" x2="33" y2="88"/>
    <line x1="8" y1="60" x2="20" y2="60"/>
    <line x1="25" y1="25" x2="33" y2="32"/>
  </g>
  <ellipse cx="60" cy="60" rx="35" ry="26" fill="#3a3a3a"/>
  <ellipse cx="60" cy="60" rx="30" ry="22" fill="#FFDD44"/>
  <ellipse cx="60" cy="60" rx="30" ry="22" fill="url(#gradyellow)"/>
  <ellipse cx="60" cy="60" rx="10" ry="7" fill="#1a1a1a"/>
  <ellipse cx="60" cy="60" rx="8" ry="5" fill="#2a2a2a"/>
  <ellipse cx="50" cy="48" rx="14" ry="7" fill="#ffffff" opacity="0.2"/>
  <defs>
    <radialGradient id="gradyellow">
      <stop offset="0%" stop-color="#FFEE66" stop-opacity="0.8"/>
      <stop offset="100%" stop-color="#CCAA33"/>
    </radialGradient>
  </defs>
</svg>